<mxfile host="65bd71144e">
    <diagram id="3LDpNFYk3Py_CpJLRpUV" name="Page-1">
        <mxGraphModel dx="886" dy="632" grid="1" gridSize="10" guides="1" tooltips="1" connect="1" arrows="1" fold="1" page="1" pageScale="1" pageWidth="1100" pageHeight="850" math="0" shadow="0">
            <root>
                <mxCell id="0"/>
                <mxCell id="1" parent="0"/>
                <mxCell id="4" value="Compute Node" style="swimlane;horizontal=0;fillColor=#e51400;strokeColor=#B20000;fontColor=#ffffff;" vertex="1" parent="1">
                    <mxGeometry x="20" y="20" width="1060" height="620" as="geometry"/>
                </mxCell>
                <mxCell id="5" value="CPU Socket" style="swimlane;horizontal=0;fillColor=#fa6800;strokeColor=#C73500;fontColor=#000000;" vertex="1" parent="4">
                    <mxGeometry x="70" y="30" width="570" height="280" as="geometry"/>
                </mxCell>
                <mxCell id="6" value="CPU" style="swimlane;horizontal=0;fillColor=#f0a30a;strokeColor=#BD7000;fontColor=#000000;" vertex="1" parent="5">
                    <mxGeometry x="40" y="15" width="250" height="255" as="geometry">
                        <mxRectangle x="60" y="15" width="30" height="50" as="alternateBounds"/>
                    </mxGeometry>
                </mxCell>
                <mxCell id="9" value="Core" style="swimlane;horizontal=0;fillColor=#e3c800;strokeColor=#B09500;fontColor=#000000;" vertex="1" parent="6">
                    <mxGeometry x="40" y="15" width="200" height="100" as="geometry"/>
                </mxCell>
                <mxCell id="10" value="Thread" style="rounded=1;whiteSpace=wrap;html=1;" vertex="1" parent="9">
                    <mxGeometry x="50" y="20" width="120" height="60" as="geometry"/>
                </mxCell>
                <mxCell id="11" value="Core" style="swimlane;horizontal=0;fillColor=#e3c800;strokeColor=#B09500;fontColor=#000000;" vertex="1" parent="6">
                    <mxGeometry x="40" y="135" width="200" height="100" as="geometry"/>
                </mxCell>
                <mxCell id="12" value="Thread" style="rounded=1;whiteSpace=wrap;html=1;" vertex="1" parent="11">
                    <mxGeometry x="50" y="20" width="120" height="60" as="geometry"/>
                </mxCell>
                <mxCell id="13" value="CPU" style="swimlane;horizontal=0;fillColor=#f0a30a;strokeColor=#BD7000;fontColor=#000000;" vertex="1" parent="5">
                    <mxGeometry x="300" y="15" width="250" height="255" as="geometry">
                        <mxRectangle x="60" y="15" width="30" height="50" as="alternateBounds"/>
                    </mxGeometry>
                </mxCell>
                <mxCell id="14" value="Core" style="swimlane;horizontal=0;fillColor=#e3c800;strokeColor=#B09500;fontColor=#000000;" vertex="1" parent="13">
                    <mxGeometry x="40" y="15" width="200" height="100" as="geometry"/>
                </mxCell>
                <mxCell id="15" value="Thread" style="rounded=1;whiteSpace=wrap;html=1;" vertex="1" parent="14">
                    <mxGeometry x="50" y="20" width="120" height="60" as="geometry"/>
                </mxCell>
                <mxCell id="16" value="Core" style="swimlane;horizontal=0;fillColor=#e3c800;strokeColor=#B09500;fontColor=#000000;" vertex="1" parent="13">
                    <mxGeometry x="40" y="135" width="200" height="100" as="geometry"/>
                </mxCell>
                <mxCell id="17" value="Thread" style="rounded=1;whiteSpace=wrap;html=1;" vertex="1" parent="16">
                    <mxGeometry x="50" y="20" width="120" height="60" as="geometry"/>
                </mxCell>
                <mxCell id="30" value="&lt;h1&gt;CPU Socket&lt;/h1&gt;&lt;p&gt;Physical mounts for CPUs; whereas retail motherboards have only one (for one CPU), HPC boards can mount multiple CPUs&lt;/p&gt;" style="text;html=1;strokeColor=none;fillColor=none;spacing=5;spacingTop=-20;whiteSpace=wrap;overflow=hidden;rounded=0;" vertex="1" parent="4">
                    <mxGeometry x="690" y="60" width="190" height="120" as="geometry"/>
                </mxCell>
                <mxCell id="31" value="&lt;h1&gt;Cores/Threads&lt;/h1&gt;&lt;p&gt;Each core can have parallel thread execution, i.e. carry out multiple tasks simultaenously&lt;/p&gt;" style="text;html=1;strokeColor=none;fillColor=none;spacing=5;spacingTop=-20;whiteSpace=wrap;overflow=hidden;rounded=0;" vertex="1" parent="4">
                    <mxGeometry x="690" y="210" width="190" height="120" as="geometry"/>
                </mxCell>
                <mxCell id="32" value="&lt;h1&gt;Caches&lt;/h1&gt;&lt;p&gt;Memory closest to the CPUs, L1/L2/L3 caches are in ascending order of distance and memory size. Each core has their own L1 cache, but some architectures can share L2 between cores.&lt;/p&gt;" style="text;html=1;strokeColor=none;fillColor=none;spacing=5;spacingTop=-20;whiteSpace=wrap;overflow=hidden;rounded=0;" vertex="1" parent="4">
                    <mxGeometry x="690" y="360" width="190" height="150" as="geometry"/>
                </mxCell>
                <mxCell id="19" value="CPU Socket" style="swimlane;horizontal=0;fillColor=#fa6800;strokeColor=#C73500;fontColor=#000000;" vertex="1" parent="1">
                    <mxGeometry x="90" y="340" width="570" height="280" as="geometry"/>
                </mxCell>
                <mxCell id="20" value="CPU" style="swimlane;horizontal=0;fillColor=#f0a30a;strokeColor=#BD7000;fontColor=#000000;" vertex="1" parent="19">
                    <mxGeometry x="40" y="15" width="250" height="255" as="geometry">
                        <mxRectangle x="60" y="15" width="30" height="50" as="alternateBounds"/>
                    </mxGeometry>
                </mxCell>
                <mxCell id="21" value="Core" style="swimlane;horizontal=0;fillColor=#e3c800;strokeColor=#B09500;fontColor=#000000;" vertex="1" parent="20">
                    <mxGeometry x="40" y="15" width="200" height="100" as="geometry"/>
                </mxCell>
                <mxCell id="22" value="Thread" style="rounded=1;whiteSpace=wrap;html=1;" vertex="1" parent="21">
                    <mxGeometry x="50" y="20" width="120" height="60" as="geometry"/>
                </mxCell>
                <mxCell id="23" value="Core" style="swimlane;horizontal=0;fillColor=#e3c800;strokeColor=#B09500;fontColor=#000000;" vertex="1" parent="20">
                    <mxGeometry x="40" y="135" width="200" height="100" as="geometry"/>
                </mxCell>
                <mxCell id="24" value="Thread" style="rounded=1;whiteSpace=wrap;html=1;" vertex="1" parent="23">
                    <mxGeometry x="50" y="20" width="120" height="60" as="geometry"/>
                </mxCell>
                <mxCell id="25" value="CPU" style="swimlane;horizontal=0;fillColor=#f0a30a;strokeColor=#BD7000;fontColor=#000000;" vertex="1" parent="19">
                    <mxGeometry x="300" y="15" width="250" height="255" as="geometry">
                        <mxRectangle x="60" y="15" width="30" height="50" as="alternateBounds"/>
                    </mxGeometry>
                </mxCell>
                <mxCell id="26" value="Core" style="swimlane;horizontal=0;fillColor=#e3c800;strokeColor=#B09500;fontColor=#000000;" vertex="1" parent="25">
                    <mxGeometry x="40" y="15" width="200" height="100" as="geometry"/>
                </mxCell>
                <mxCell id="27" value="Thread" style="rounded=1;whiteSpace=wrap;html=1;" vertex="1" parent="26">
                    <mxGeometry x="50" y="20" width="120" height="60" as="geometry"/>
                </mxCell>
                <mxCell id="28" value="Core" style="swimlane;horizontal=0;fillColor=#e3c800;strokeColor=#B09500;fontColor=#000000;" vertex="1" parent="25">
                    <mxGeometry x="40" y="135" width="200" height="100" as="geometry"/>
                </mxCell>
                <mxCell id="29" value="Thread" style="rounded=1;whiteSpace=wrap;html=1;" vertex="1" parent="28">
                    <mxGeometry x="50" y="20" width="120" height="60" as="geometry"/>
                </mxCell>
            </root>
        </mxGraphModel>
    </diagram>
</mxfile>